<?xml version="1.0" encoding="utf-8"?>
<!-- Generated by IcoMoon.io -->
<!DOCTYPE svg PUBLIC "-//W3C//DTD SVG 1.1//EN" "http://www.w3.org/Graphics/SVG/1.1/DTD/svg11.dtd">

<svg version="1.1" xmlns="http://www.w3.org/2000/svg" xmlns:xlink="http://www.w3.org/1999/xlink" width="464" height="32" viewBox="0 0 464 32">
<defs>
<g id="icon-arrow-left">
	<path class="path1" d="M26.104 27.737l-4.283 4.263-15.924-16 15.924-16 4.283 4.263-11.681 11.737z"></path>
</g>
<g id="icon-arrow-right">
	<path class="path1" d="M5.896 4.263l4.283-4.263 15.924 16-15.924 16-4.283-4.263 11.681-11.737z"></path>
</g>
<g id="icon-browse">
	<path class="path1" d="M5.672 28.233h-5.672v-5.049h5.672v5.049zM5.672 13.476h-5.672v5.049h5.672v-5.049zM5.672 3.767h-5.672v5.049h5.672v-5.049zM9.167 3.767v5.049h22.833v-5.049h-22.833zM9.167 18.524h22.833v-5.049h-22.833v5.049zM9.167 28.233h22.833v-5.049h-22.833v5.049z"></path>
</g>
<g id="icon-cart-alt">
	<path class="path1" d="M28.126 19.966l3.783-11.323c0.189-0.544 0.046-0.871-0.107-1.087-0.392-0.553-1.2-0.558-1.357-0.558l-21.378-0.004-0.57-2.707c-0.154-0.639-0.609-1.248-1.527-1.248h-6.008c-0.623 0-0.962 0.291-0.962 0.874v1.563c0 0.563 0.337 0.71 0.983 0.71h5.073l3.883 16.484c-0.617 0.653-0.953 1.606-0.953 2.494 0 1.955 1.557 3.757 3.547 3.757 1.875 0 3.285-1.759 3.513-2.807h7.562c0.228 1.049 1.368 2.849 3.512 2.849 1.954 0 3.543-1.693 3.543-3.644 0-1.941-1.18-3.663-3.521-3.663-0.974 0-2.13 0.524-2.667 1.311h-9.292c-0.674-1.049-1.595-1.373-2.527-1.41l-0.131-0.687h14.137c1.065 0 1.275-0.388 1.464-0.902zM27.146 23.942c0.735 0 1.331 0.597 1.331 1.334 0 0.733-0.595 1.334-1.331 1.334s-1.334-0.596-1.334-1.334c0.001-0.736 0.598-1.334 1.334-1.334zM13.849 25.274c0 0.744-0.604 1.349-1.346 1.349-0.744-0.002-1.349-0.605-1.349-1.349s0.605-1.349 1.349-1.349c0.742-0 1.346 0.605 1.346 1.349z"></path>
</g>
<g id="icon-cart">
	<path class="path1" d="M23.061 7.271h-23.048l4.16 9.411h15.929l2.959-9.411zM31.987 4.28l-0.99 3.107h-2.328l-4.596 14.615h-17.637l-1.369-3.107h16.734l4.597-14.615h5.59zM20.724 25.631c0 1.154-0.935 2.089-2.089 2.089s-2.089-0.935-2.089-2.089 0.935-2.089 2.089-2.089 2.089 0.935 2.089 2.089zM13.82 25.631c0 1.154-0.935 2.089-2.089 2.089s-2.089-0.935-2.089-2.089 0.935-2.089 2.089-2.089c1.154 0 2.089 0.935 2.089 2.089z"></path>
</g>
<g id="icon-gear">
	<path class="path1" d="M32 18.155v-4.309l-2.329-0.828c-0.888-0.316-1.602-0.994-1.963-1.864-0-0-0-0.001-0-0.001-0.362-0.873-0.337-1.858 0.069-2.711l1.060-2.231-3.047-3.047-2.231 1.060c-0.853 0.405-1.839 0.431-2.711 0.069-0-0-0.001-0-0.001-0-0.871-0.361-1.548-1.075-1.864-1.963l-0.828-2.329h-4.309l-0.828 2.329c-0.316 0.888-0.994 1.602-1.864 1.963-0 0-0.001 0-0.001 0-0.873 0.362-1.858 0.337-2.711-0.069l-2.231-1.060-3.047 3.047 1.060 2.231c0.405 0.853 0.431 1.839 0.069 2.711-0 0-0 0.001-0 0.001-0.361 0.871-1.075 1.548-1.963 1.864l-2.329 0.828v4.309l2.329 0.828c0.888 0.316 1.602 0.994 1.963 1.864 0 0 0 0.001 0 0.001 0.362 0.873 0.337 1.858-0.069 2.711l-1.061 2.231 3.047 3.047 2.231-1.060c0.853-0.405 1.839-0.431 2.711-0.069 0 0 0.001 0 0.001 0 0.871 0.361 1.548 1.074 1.864 1.963l0.828 2.329h4.309l0.823-2.314c0.319-0.896 1.003-1.617 1.881-1.983 0-0 0.001-0 0.001-0 0.864-0.359 1.84-0.335 2.686 0.067l2.245 1.067 3.047-3.047-1.061-2.232c-0.405-0.852-0.43-1.837-0.069-2.709 0-0 0-0.001 0-0.001 0.361-0.872 1.076-1.549 1.965-1.866l2.327-0.828zM16 21.868c-3.241 0-5.868-2.627-5.868-5.868s2.627-5.868 5.868-5.868c3.241 0 5.868 2.627 5.868 5.868s-2.627 5.868-5.868 5.868z"></path>
</g>
<g id="icon-home">
	<path class="path1" d="M16.087 8.947l12.202 10.571v11.167h-8.864v-6.443h-6.676v6.443h-8.864v-11.083l12.202-10.655zM16.084 6.070l13.536 11.904 2.38-2.38-15.91-14.279-16.090 14.383 2.374 2.386 13.71-12.014z"></path>
</g>
<g id="icon-mail">
	<path class="path1" d="M9.363 14.684l-9.363-7.192v16.555l9.363-9.363zM31.917 4.148h-31.807l15.891 12.207 15.916-12.207zM20.455 16.365l-4.455 3.417-4.462-3.428-11.498 11.498h31.903l-11.487-11.487zM22.63 14.696l9.37 9.37v-16.556l-9.37 7.186z"></path>
</g>
<g id="icon-search">
	<path class="path1" d="M31.882 27.84l-8.472-8.472c1.239-1.952 1.957-4.266 1.957-6.744 0-6.961-5.663-12.624-12.624-12.624s-12.624 5.663-12.624 12.624 5.663 12.624 12.624 12.624c2.355 0 4.562-0.649 6.451-1.777l8.528 8.528 4.16-4.16zM4.825 12.624c0-4.366 3.552-7.918 7.918-7.918s7.918 3.552 7.918 7.918-3.552 7.918-7.918 7.918c-4.366 0-7.918-3.552-7.918-7.918z"></path>
</g>
<g id="icon-shop">
	<path class="path1" d="M19.221 14.164l1.826-2.739c0.467-0.7 1.413-0.889 2.113-0.422s0.889 1.413 0.423 2.113l-1.826 2.739c-0.467 0.7-1.413 0.89-2.113 0.423s-0.89-1.413-0.423-2.113zM16.712 13.253c0.701 0.468 1.649 0.278 2.117-0.423l1.844-2.765c0.468-0.701 0.278-1.649-0.424-2.117s-1.649-0.278-2.116 0.423l-1.844 2.766c-0.468 0.701-0.278 1.649 0.423 2.117zM26.055 18.517l-1.615 2.422c-0.43 0.644-0.255 1.515 0.389 1.944s1.515 0.256 1.944-0.389l1.615-2.423c0.43-0.644 0.256-1.515-0.389-1.944s-1.515-0.255-1.944 0.389zM21.96 17.398c-0.465 0.698-0.277 1.641 0.421 2.106s1.641 0.277 2.106-0.421l1.75-2.625c0.465-0.698 0.277-1.641-0.421-2.107s-1.641-0.277-2.106 0.421l-1.75 2.625zM30.376 29.683c-1.241 1.241-3.254 1.241-4.495 0l-7.977-8.139c1.451-1.604 0.746-4.372-1.576-4.784l-4.099-0.728-1.41-1.41c-0.8-0.8-1.902-1.222-3.031-1.162-1.842 0.098-3.715-0.556-5.122-1.962-1.885-1.885-2.418-4.608-1.602-6.968l4.285 4.285c1.672 0.098 4.257-2.486 4.158-4.158l-4.285-4.285c2.36-0.816 5.084-0.282 6.968 1.602 1.407 1.407 2.061 3.28 1.962 5.122-0.060 1.129 0.362 2.232 1.161 3.031l0.037 0.037c-1.657 2.777 0.577 4.68 2.408 4.61-0.329 1.574 1.355 3.214 2.801 3.214-0.358 1.387 0.716 2.833 2.385 3.161-0.673 2.43 3.011 5.022 5.144 1.754l2.287 2.287c1.241 1.242 1.241 3.254 0 4.496zM29.283 27.241c0-0.723-0.587-1.31-1.31-1.31s-1.31 0.587-1.31 1.31c0 0.724 0.587 1.31 1.31 1.31s1.31-0.587 1.31-1.31zM17.853 23.415c-0.89-0.917-2.269-0.986-4.779-1.152-0.381-0.025-0.616 0.219-0.648 0.59-0.007 0.083-0.61 5.611-0.61 5.611s3.725 2.517 5.254 3.536c1.419-2.561 3.599-2.716 5.228-4.003l-4.445-4.582zM15.69 21.158c1.943-0 2.236-2.752 0.403-3.078-6.894-1.225-6.532-1.185-6.759-1.185-0.846 0-1.58 0.604-1.744 1.437l-0.596 5.262c-0.081 0.841 0.192 1.568 0.844 2.042 0.65 0.473 2.702 1.932 2.702 1.932s0.437-3.78 0.56-4.867c0.123-1.087 0.734-1.837 1.898-1.78 0.123 0.006 2.48 0.238 2.692 0.238z"></path>
</g>
</defs>

<g fill="#000000">
	<use xlink:href="#icon-arrow-left" transform="translate(0 0)"></use>
	<use xlink:href="#icon-arrow-right" transform="translate(48 0)"></use>
	<use xlink:href="#icon-browse" transform="translate(96 0)"></use>
	<use xlink:href="#icon-cart-alt" transform="translate(144 0)"></use>
	<use xlink:href="#icon-cart" transform="translate(192 0)"></use>
	<use xlink:href="#icon-gear" transform="translate(240 0)"></use>
	<use xlink:href="#icon-home" transform="translate(288 0)"></use>
	<use xlink:href="#icon-mail" transform="translate(336 0)"></use>
	<use xlink:href="#icon-search" transform="translate(384 0)"></use>
	<use xlink:href="#icon-shop" transform="translate(432 0)"></use>
</g>

</svg>
